<?xml version="1.0" standalone="no"?>
<!DOCTYPE svg PUBLIC "-//W3C//DTD SVG 20010904//EN"
 "http://www.w3.org/TR/2001/REC-SVG-20010904/DTD/svg10.dtd">
<svg version="1.0" xmlns="http://www.w3.org/2000/svg"
 width="288.000000pt" height="288.000000pt" viewBox="0 0 288.000000 288.000000"
 preserveAspectRatio="xMidYMid meet" class="logo-svg">
<metadata>
Created by potrace 1.15, written by Peter Selinger 2001-2017
</metadata>
<g  class="logo-items" transform="translate(0.000000,288.000000) scale(0.100000,-0.100000)"
fill="#000000" stroke="none">
<path d="M810 1745 l0 -305 150 0 150 0 0 150 0 150 150 0 150 0 0 155 0 155
-300 0 -300 0 0 -305z"/>
<path d="M1450 1895 l0 -155 150 0 150 0 0 -150 0 -150 150 0 150 0 0 305 0
305 -300 0 -300 0 0 -155z"/>
<path d="M1750 1250 l0 -150 -150 0 -150 0 0 -155 0 -155 300 0 300 0 0 305 0
305 -150 0 -150 0 0 -150z"/>
</g>
</svg>
